<?xml version="1.0" standalone="no"?>
<!DOCTYPE svg PUBLIC "-//W3C//DTD SVG 20010904//EN"
 "http://www.w3.org/TR/2001/REC-SVG-20010904/DTD/svg10.dtd">
<svg version="1.0" xmlns="http://www.w3.org/2000/svg"
 width="1024.000000pt" height="1024.000000pt" viewBox="0 0 1024.000000 1024.000000"
 preserveAspectRatio="xMidYMid meet">
<metadata>
Created by potrace 1.14, written by Peter Selinger 2001-2017
</metadata>
<g transform="translate(0.000000,1024.000000) scale(0.100000,-0.100000)"
fill="#000000" stroke="none">
<path d="M4807 9433 c7 -114 11 -123 43 -123 44 0 79 -37 89 -95 5 -27 17
-161 27 -297 10 -151 21 -248 27 -248 38 0 132 37 165 66 58 49 66 91 59 287
-16 404 -58 467 -312 467 l-102 0 4 -57z"/>
<path d="M3075 9434 c-60 -26 -111 -47 -113 -49 -4 -4 447 -1098 457 -1108 4
-4 60 13 123 39 l116 47 -73 176 c-262 638 -389 941 -394 941 -3 -1 -55 -21
-116 -46z"/>
<path d="M4576 9453 c-27 -9 -63 -31 -81 -48 -51 -47 -58 -92 -51 -300 13
-383 52 -443 294 -453 l112 -5 0 50 c0 28 -3 70 -6 95 -6 43 -8 45 -42 46 -76
3 -83 28 -108 380 l-18 252 -26 -1 c-14 0 -47 -8 -74 -16z"/>
<path d="M5854 9411 c-80 -19 -124 -70 -150 -170 -22 -86 -22 -168 -1 -208 22
-41 59 -63 192 -113 134 -50 155 -63 155 -96 0 -13 -12 -77 -26 -141 -29 -129
-28 -133 36 -133 123 0 194 68 226 219 26 124 12 190 -46 225 -17 9 -86 38
-153 62 -128 48 -157 65 -157 96 0 10 12 71 26 135 21 95 24 117 13 124 -16
10 -71 10 -115 0z"/>
<path d="M6095 9314 c-9 -41 -15 -79 -13 -85 4 -12 229 -81 238 -73 3 3 12 38
21 77 l15 72 -52 22 c-28 12 -83 31 -122 42 l-70 19 -17 -74z"/>
<path d="M7066 9179 c-32 -60 -61 -109 -64 -109 -4 1 -36 16 -72 34 l-65 34
-42 -81 c-23 -45 -41 -82 -40 -83 12 -9 528 -274 534 -274 7 0 83 142 83 155
0 3 -36 23 -80 45 -44 22 -80 42 -80 45 0 3 25 54 55 114 l54 110 -92 49 c-50
27 -101 54 -113 60 -19 10 -25 3 -78 -99z"/>
<path d="M3641 9244 c-61 -16 -105 -41 -140 -78 l-24 -25 31 -73 c30 -73 31
-73 66 -70 72 6 81 -9 226 -360 40 -98 77 -178 82 -178 12 0 210 81 221 90 8
7 -175 466 -224 563 -62 124 -129 161 -238 131z"/>
<path d="M2198 8894 l-97 -85 361 -422 c199 -232 376 -439 394 -459 l33 -37
93 79 c51 44 93 84 93 89 0 6 -166 204 -370 441 -203 238 -379 442 -390 455
l-20 24 -97 -85z"/>
<path d="M7998 8800 l-58 -69 96 -81 c52 -44 98 -80 102 -79 10 1 112 126 112
137 0 9 -180 162 -190 162 -3 0 -31 -32 -62 -70z"/>
<path d="M5631 8791 c-5 -20 -13 -55 -19 -78 l-10 -42 67 -25 c36 -13 91 -32
121 -41 30 -9 60 -18 67 -20 10 -3 43 113 43 154 0 12 -32 25 -130 52 l-130
36 -9 -36z"/>
<path d="M6790 8647 c-40 -78 -92 -178 -116 -223 l-44 -80 114 -60 c63 -32
116 -57 119 -54 11 12 229 441 226 444 -2 2 -54 29 -115 59 l-110 55 -74 -141z"/>
<path d="M7565 8278 c-132 -159 -248 -300 -258 -313 -17 -23 -17 -23 65 -91
46 -38 90 -75 99 -82 15 -11 48 25 270 294 140 168 255 310 257 314 2 4 -34
38 -80 75 -46 38 -90 74 -98 81 -13 10 -51 -31 -255 -278z"/>
<path d="M2224 8391 c-54 -25 -118 -82 -138 -125 -9 -19 -16 -54 -16 -79 0
-87 102 -248 255 -403 132 -133 225 -165 318 -111 55 33 127 112 127 141 -1
12 -25 48 -54 80 -52 58 -53 59 -77 43 -57 -41 -97 -15 -232 150 -70 86 -80
125 -44 164 l24 25 -55 65 c-30 35 -57 65 -61 66 -3 2 -25 -6 -47 -16z"/>
<path d="M1279 7947 c-8 -12 -41 -59 -72 -104 l-58 -82 68 -50 c37 -28 73 -50
80 -51 10 0 158 199 151 204 -2 1 -36 26 -75 54 -40 29 -74 52 -75 52 -2 0
-10 -11 -19 -23z"/>
<path d="M8313 7921 c-116 -29 -396 -248 -442 -346 -54 -115 1 -253 174 -432
l73 -76 39 29 c22 16 52 39 67 51 l27 22 -66 81 c-91 113 -104 154 -66 215 10
17 113 105 230 195 l211 164 -20 21 c-53 57 -160 93 -227 76z"/>
<path d="M1551 7641 c-39 -55 -71 -103 -71 -108 0 -4 69 -56 153 -115 83 -59
231 -163 328 -231 l176 -125 67 94 c37 52 69 100 72 107 3 10 -99 88 -312 238
-174 123 -323 227 -330 231 -8 6 -35 -24 -83 -91z"/>
<path d="M8570 7668 c-36 -27 -64 -54 -63 -59 8 -26 107 -148 117 -142 10 5
87 65 109 84 13 10 -74 170 -92 168 -3 0 -35 -23 -71 -51z"/>
<path d="M4030 7704 c-173 -26 -238 -48 -435 -144 -184 -90 -286 -152 -460
-281 -136 -100 -145 -113 -145 -207 0 -148 90 -210 329 -227 83 -6 101 -10
102 -24 0 -9 2 -106 4 -216 4 -270 41 -484 115 -671 17 -41 30 -81 30 -89 0
-12 -20 -15 -112 -15 -90 0 -122 -4 -155 -20 -38 -17 -43 -23 -43 -53 0 -19
-3 -48 -6 -65 l-6 -30 -85 -4 c-85 -3 -85 -3 -119 -42 -37 -43 -40 -61 -22
-148 11 -51 10 -65 -7 -113 -14 -43 -23 -55 -39 -55 -12 0 -38 -5 -58 -10 -34
-10 -39 -16 -53 -62 -17 -58 -14 -76 28 -173 25 -58 30 -83 30 -145 l-1 -75
-47 -43 -48 -43 7 -66 c8 -76 15 -93 66 -149 39 -42 73 -119 84 -190 l7 -41
-53 -6 c-104 -13 -118 -10 -124 22 -4 17 -12 32 -20 35 -14 5 -44 -29 -44 -51
0 -9 -20 -13 -69 -13 -37 0 -95 -3 -129 -6 l-61 -7 -16 39 c-13 32 -18 36 -29
23 -7 -8 -20 -34 -30 -59 -24 -64 -117 -194 -141 -198 -20 -3 -20 -10 -18
-304 2 -294 3 -302 23 -313 29 -15 60 -70 60 -103 0 -31 -16 -49 -93 -103
l-49 -34 -20 28 c-11 15 -24 27 -29 27 -10 0 -140 -261 -154 -307 -6 -23 -5
-23 77 -23 46 0 121 4 168 10 197 21 642 71 730 81 106 13 213 5 800 -56 179
-19 399 -41 490 -50 91 -8 207 -20 258 -26 103 -13 105 -15 73 -84 -10 -22
-21 -52 -25 -67 l-6 -28 73 0 c41 0 113 7 160 15 47 8 236 33 421 55 185 22
348 43 362 46 34 9 86 73 130 161 l37 76 199 -6 c174 -6 199 -5 205 9 4 11 17
15 49 13 35 -2 46 1 63 22 l21 24 19 -24 c16 -21 23 -23 57 -16 22 4 63 10 93
14 59 8 91 35 91 76 0 35 10 55 28 55 9 0 26 10 38 21 19 18 27 20 53 11 28
-10 32 -8 51 18 15 21 20 44 20 92 0 40 7 78 20 106 16 36 23 42 49 42 41 0
55 28 48 99 -3 31 -9 68 -13 84 -5 23 -3 27 15 27 12 0 35 7 51 15 29 15 30
15 60 -27 16 -24 34 -49 40 -55 8 -10 65 -13 219 -13 115 0 222 -3 239 -6 26
-5 32 -2 48 25 22 37 39 39 71 9 23 -21 26 -21 65 -8 35 13 43 21 53 55 11 40
19 45 62 31 31 -10 65 42 71 110 4 50 6 54 38 64 l34 12 0 92 c0 82 3 95 21
112 19 17 20 26 14 79 -10 83 -10 153 -1 196 7 29 3 47 -20 95 -22 47 -28 71
-26 121 1 56 -2 67 -34 113 -24 35 -40 74 -50 123 -13 65 -19 76 -63 117 -32
30 -51 57 -56 80 -12 58 -52 119 -83 125 -44 10 -56 19 -77 63 -11 22 -33 54
-48 70 -33 34 -34 71 -12 267 26 226 19 286 -70 630 -61 238 -113 396 -212
648 -48 119 -84 220 -81 223 11 10 186 -63 275 -115 l90 -54 6 -131 c7 -150
16 -188 53 -227 53 -55 127 -46 189 23 64 70 106 200 108 333 1 85 -19 133
-74 172 -304 219 -505 322 -789 404 -265 76 -520 104 -859 96 -268 -7 -383
-20 -666 -79 -281 -59 -290 -59 -405 -8 -278 123 -543 181 -825 178 -82 0
-161 -2 -175 -4z m475 -78 c177 -32 311 -74 513 -162 l103 -45 202 45 c111 24
222 46 247 48 42 3 45 1 61 -32 9 -19 24 -71 34 -115 9 -44 24 -97 33 -119
l15 -39 91 6 c50 3 134 11 186 17 213 27 584 -4 873 -71 126 -29 162 -45 177
-77 55 -119 210 -534 210 -562 0 -6 8 -19 19 -28 19 -18 68 -183 115 -392 14
-63 29 -125 32 -137 7 -26 10 -25 -151 -48 -360 -52 -673 -120 -990 -214 -162
-49 -170 -50 -185 -41 -9 6 -7 11 9 19 20 11 21 19 21 165 l0 154 -32 5 c-76
11 -256 -14 -733 -104 -176 -33 -330 -59 -341 -57 -21 3 -21 6 23 122 49 132
76 238 98 385 16 108 35 358 35 471 0 56 7 94 27 150 29 84 47 110 75 110 16
0 18 -8 18 -63 0 -97 11 -107 120 -107 82 0 91 2 104 23 20 31 31 446 13 471
-29 40 -162 42 -204 3 -14 -12 -23 -32 -23 -50 0 -29 0 -29 -42 -21 -92 18
-106 13 -171 -56 -50 -53 -62 -61 -76 -51 -58 42 -95 51 -229 51 -142 0 -369
27 -499 60 -166 42 -316 147 -344 240 -7 22 -9 43 -5 47 24 25 434 24 571 -1z
m-600 -56 c10 -22 40 -60 66 -85 42 -39 177 -134 212 -149 31 -13 -192 -184
-303 -231 -47 -20 -160 -75 -252 -122 l-168 -86 -67 7 c-38 3 -102 7 -144 9
-102 5 -159 36 -184 102 -36 93 -3 146 155 254 186 128 588 340 646 341 15 0
26 -12 39 -40z m2679 -36 c363 -45 675 -159 964 -353 157 -105 188 -153 147
-230 -25 -50 -65 -54 -110 -13 -51 49 -206 139 -285 167 -41 15 -79 31 -85 35
-16 12 -197 69 -284 90 -156 37 -300 50 -574 50 -175 0 -319 -5 -434 -17 -110
-11 -176 -14 -181 -8 -12 14 -76 255 -69 261 8 9 147 24 297 34 171 11 458 3
614 -16z m-1301 -239 c14 -6 17 -20 17 -86 l0 -79 -37 -17 c-27 -13 -46 -33
-65 -68 -24 -44 -28 -47 -28 -24 0 21 -11 34 -51 60 -98 62 -101 80 -28 162
65 73 110 86 192 52z m-777 -47 c-3 -18 -8 -59 -11 -90 -6 -57 -7 -57 -43 -64
-109 -18 -207 -72 -297 -163 l-49 -51 -78 0 c-90 0 -149 -18 -228 -67 -100
-63 -187 -165 -275 -318 -30 -53 -44 -71 -49 -59 -9 22 -7 427 2 440 10 15
335 181 443 226 170 71 360 133 490 162 99 22 101 21 95 -16z m991 -5 c-3 -10
-5 -4 -5 12 0 17 2 24 5 18 2 -7 2 -21 0 -30z m-552 -7 c32 -14 73 -61 62 -72
-6 -6 -177 62 -191 77 -16 15 91 11 129 -5z m-225 -16 c104 -27 237 -83 282
-120 27 -22 42 -47 57 -93 28 -86 43 -174 39 -227 -3 -42 -5 -45 -38 -52 -39
-8 -357 -35 -465 -40 l-70 -3 -3 110 c-3 102 10 321 24 408 7 36 7 37 51 37
25 0 80 -9 123 -20z m763 -65 c-7 -12 -11 -8 -21 18 -10 29 -10 30 3 13 15
-19 15 -19 16 5 2 23 2 23 6 2 2 -12 0 -29 -4 -38z m-1004 -327 c0 -378 37
-586 160 -916 33 -86 61 -166 63 -177 4 -27 -74 -65 -230 -110 -213 -61 -272
-70 -452 -70 -91 0 -176 3 -190 7 -35 11 -91 92 -159 232 -70 144 -91 204
-137 390 -25 101 -33 153 -29 183 9 61 133 252 218 335 41 40 94 80 131 98 67
33 173 55 222 45 29 -5 37 0 90 56 70 74 140 121 220 148 102 35 94 55 93
-221z m630 188 c7 -8 11 -32 9 -53 -3 -34 -4 -36 -14 -18 -17 29 -27 85 -16
85 5 0 15 -6 21 -14z m18 -423 c-10 -243 -74 -534 -156 -708 -38 -81 -39 -82
-81 -89 -23 -4 -44 -5 -46 -3 -3 2 49 181 115 398 65 217 128 427 140 467 12
39 25 72 28 72 3 0 3 -62 0 -137z m-47 88 c0 -8 -74 -255 -137 -457 l-25 -81
-97 -7 c-53 -3 -123 -6 -156 -6 l-61 0 -33 168 c-18 92 -36 209 -39 260 l-5
92 29 1 c16 0 117 9 224 18 228 21 300 24 300 12z m-180 -588 c0 -33 -43 -170
-76 -243 -38 -81 -61 -113 -77 -103 -22 14 -127 292 -127 338 0 12 24 15 133
18 72 1 135 4 140 5 4 1 7 -6 7 -15z m1180 -252 c0 -133 5 -125 -83 -136 l-55
-7 -12 58 c-13 63 -26 95 -44 106 -6 4 -37 10 -68 14 -32 4 -58 10 -58 15 0
10 58 26 180 49 154 29 140 40 140 -99z m-364 28 c72 -12 97 -19 91 -25 -2 -3
-51 -14 -108 -25 -105 -21 -230 -21 -304 0 -29 8 -29 8 25 24 131 38 198 44
296 26z m200 -144 l21 -105 -101 0 c-145 0 -141 -2 -161 87 -9 41 -14 77 -11
80 6 7 172 40 206 42 25 1 27 -3 46 -104z m1479 -143 c-12 -136 -20 -190 -31
-198 -13 -10 -143 -29 -149 -22 -2 2 -46 89 -98 194 l-96 192 92 16 c51 9 137
25 192 34 l100 18 3 -24 c2 -13 -4 -108 -13 -210z m-1950 202 c55 -9 101 -17
102 -18 4 -3 314 -1369 311 -1372 -4 -3 -230 44 -235 50 -6 5 -323 1337 -323
1353 0 11 7 13 23 10 12 -3 67 -13 122 -23z m-166 -16 c15 -46 41 -160 41
-179 0 -23 -99 -43 -107 -23 -8 20 1 207 10 222 16 24 45 13 56 -20z m-109
-94 c0 -74 -4 -113 -10 -109 -5 3 -10 24 -10 45 0 52 -13 82 -55 129 l-36 40
38 4 c21 2 46 4 56 5 15 2 17 -10 17 -114z m-147 92 c100 -43 143 -185 81
-269 -25 -34 -124 -98 -234 -153 -264 -131 -506 -188 -805 -188 -185 0 -314
18 -503 70 -204 56 -246 91 -246 208 1 68 19 113 60 145 34 27 91 27 195 1
131 -34 266 -50 416 -50 245 0 443 45 735 169 90 38 170 71 178 74 29 10 91 7
123 -7z m622 -41 c21 -70 17 -89 -17 -93 -25 -3 -27 0 -38 55 -6 32 -13 63
-15 70 -5 16 5 23 31 23 20 0 26 -9 39 -55z m-2311 -150 c-16 -25 -19 -25
-146 -25 -124 0 -128 1 -118 19 14 28 22 29 158 30 l122 1 -16 -25z m2446 8
c-71 -23 -150 -29 -161 -12 -5 8 -9 17 -9 22 0 4 48 7 108 6 l107 -1 -45 -15z
m170 -13 c13 -23 44 -170 37 -176 -2 -3 -56 -3 -118 -2 l-114 3 83 89 c45 48
82 92 82 97 0 16 19 9 30 -11z m-83 -206 c-9 -9 -127 -33 -163 -34 -23 0 -33
5 -37 20 -5 19 0 20 101 20 58 0 103 -3 99 -6z m146 -42 c18 -45 42 -160 35
-168 -3 -2 -55 -1 -116 2 -93 6 -110 9 -103 22 12 21 155 181 162 182 4 0 14
-17 22 -38z m877 -32 c27 -17 -2 -25 -92 -25 -61 0 -93 4 -95 12 -2 6 4 13 14
16 33 9 158 7 173 -3z m-990 -159 c20 -6 11 -10 -45 -20 -38 -6 -85 -14 -102
-17 -28 -5 -33 -3 -33 14 0 11 6 23 13 25 18 8 138 6 167 -2z m185 -98 c9 -43
19 -89 22 -102 6 -23 4 -24 -33 -18 -21 4 -74 7 -116 7 -51 0 -78 4 -78 11 0
16 161 179 176 179 7 0 19 -32 29 -77z m-254 -89 c9 -12 6 -14 -18 -14 -30 0
-53 15 -53 36 0 16 53 0 71 -22z m109 -43 c54 -9 41 -16 -57 -30 -97 -15 -103
-14 -103 8 0 29 64 38 160 22z m1295 -15 c44 -19 45 -28 3 -15 -25 7 -41 5
-70 -10 -44 -21 -50 -12 -12 18 32 25 35 25 79 7z m-1101 -53 c9 -26 19 -72
23 -102 l6 -54 -104 8 c-57 4 -107 11 -110 16 -3 6 21 38 54 72 33 34 66 72
75 85 22 34 39 27 56 -25z m1157 -20 c46 -42 78 -99 108 -196 41 -136 38 -234
-12 -308 -89 -133 -277 111 -277 360 0 163 85 231 181 144z m-1413 -31 c18
-88 17 -92 -23 -92 -30 0 -36 4 -41 28 -3 15 -10 45 -16 66 -11 44 -2 56 42
56 24 0 27 -6 38 -58z m1675 -96 c66 -178 73 -329 20 -434 -15 -31 -40 -64
-54 -75 -59 -42 -158 -39 -214 9 l-30 24 36 -6 c65 -10 121 34 148 118 28 87
8 266 -43 382 l-25 56 67 0 67 0 28 -74z m-1538 -15 c24 -5 34 -10 25 -14 -30
-11 -192 -37 -201 -31 -5 3 -9 14 -9 24 0 19 3 20 125 28 11 0 38 -3 60 -7z
m-2089 -29 c-3 -5 8 -9 24 -10 33 -1 53 -10 46 -21 -3 -4 13 -8 35 -9 24 -2
39 2 39 9 0 6 7 8 17 5 10 -4 14 -4 10 0 -10 10 41 34 58 28 8 -4 12 -11 8
-18 -4 -6 2 -4 12 4 13 11 16 11 11 2 -6 -11 0 -13 27 -11 23 2 42 -3 55 -14
20 -19 37 -23 27 -7 -3 6 -1 10 4 10 15 0 8 -43 -27 -175 l-29 -110 -116 -3
-117 -3 0 29 c0 66 -60 66 -70 1 l-5 -34 -115 1 c-266 3 -247 0 -253 33 -4 16
-4 52 0 80 5 42 11 54 39 73 18 12 30 27 27 32 -3 5 -2 6 4 3 6 -4 19 1 29 9
10 9 13 12 5 8 -9 -5 -12 -3 -7 5 4 6 11 9 16 6 12 -8 41 6 34 16 -3 5 -2 9 3
8 21 -4 44 2 39 9 -3 5 9 6 26 4 20 -3 29 -1 24 6 -3 6 -2 13 3 16 5 4 12 2
16 -3 3 -6 12 -8 20 -5 8 4 13 9 10 13 -5 9 26 8 42 -2 6 -4 13 0 17 8 3 8 8
15 11 15 4 0 4 -4 1 -8z m2273 -83 c30 -129 33 -122 -46 -114 -130 12 -163 17
-163 26 0 13 163 177 177 178 6 1 20 -38 32 -90z m-306 23 c19 -21 47 -85 47
-107 0 -10 -10 -15 -34 -15 -34 0 -35 1 -46 57 -7 32 -15 63 -17 70 -8 20 31
16 50 -5z m425 -36 c17 1 26 -6 33 -23 50 -131 61 -395 22 -518 -32 -103 -73
-159 -139 -191 -46 -22 -63 -26 -109 -21 -30 3 -81 17 -112 32 -55 25 -142 84
-143 96 0 3 26 -3 59 -14 51 -18 63 -19 99 -9 57 17 95 53 123 114 22 49 24
65 24 220 l0 168 38 0 39 0 -5 79 -5 79 27 -7 c14 -4 36 -6 49 -5z m-259 -112
c17 -4 31 -10 31 -14 0 -9 -187 -33 -200 -25 -5 3 -10 15 -10 26 0 17 7 19 74
19 40 0 88 -3 105 -6z m-1059 -61 c0 -28 14 -46 172 -215 98 -106 112 -117
130 -107 16 8 23 8 29 -2 14 -22 11 -38 -14 -74 -30 -44 -60 -67 -131 -101
-32 -15 -64 -38 -73 -50 -14 -22 -17 -22 -36 -9 -34 24 -80 19 -109 -12 -40
-42 -49 -75 -55 -219 l-6 -132 -21 25 -21 24 -73 -75 -73 -75 63 -86 c83 -112
91 -125 85 -125 -3 0 -40 41 -83 90 -54 64 -83 90 -99 90 -29 0 -38 31 -16 62
9 12 53 61 99 106 l82 84 0 105 0 105 -52 62 c-28 33 -71 79 -95 102 -36 33
-43 47 -43 77 0 34 2 37 23 32 24 -6 52 19 215 202 54 62 72 89 72 111 0 16 3
32 6 35 12 12 24 -4 24 -30z m707 27 c39 -9 52 -17 66 -43 38 -69 95 -117 139
-117 33 0 62 40 72 99 5 33 10 39 37 45 17 3 44 6 60 6 26 0 28 -3 35 -56 9
-79 -1 -201 -21 -252 -80 -198 -329 -56 -436 249 -32 88 -33 86 48 69z m-1251
-58 c-15 -15 -16 -14 -16 9 0 14 3 29 7 33 4 3 11 -1 16 -10 6 -11 4 -21 -7
-32z m1450 28 c53 0 54 -1 54 -29 0 -17 -10 -42 -23 -57 l-24 -28 -38 20 c-22
12 -48 37 -63 63 l-26 44 33 -6 c19 -4 58 -7 87 -7z m-1922 -27 c-4 -16 -7
-39 -6 -53 11 -135 13 -186 7 -207 -10 -43 -20 -15 -25 74 -3 48 -9 88 -15 89
-5 2 -43 -39 -83 -91 -63 -82 -92 -110 -92 -89 0 6 98 130 152 193 21 24 38
52 38 62 0 25 11 49 22 49 6 0 7 -11 2 -27z m2175 -114 c2 -179 -67 -309 -163
-309 -117 1 -316 211 -360 380 -4 14 15 -16 42 -67 80 -151 147 -224 238 -259
89 -34 164 8 205 115 17 45 21 78 22 171 0 85 2 105 8 75 4 -22 8 -70 8 -106z
m-2613 84 c-11 -11 -19 6 -11 24 8 17 8 17 12 0 3 -10 2 -21 -1 -24z m-396 6
c0 -11 -4 -18 -10 -14 -5 3 -7 12 -3 20 7 21 13 19 13 -6z m-363 -21 c-3 -7
-5 -2 -5 12 0 14 2 19 5 13 2 -7 2 -19 0 -25z m2045 16 c129 -13 55 -24 -153
-24 -125 0 -209 4 -209 10 0 15 244 25 362 14z m-466 -23 c-3 -4 -50 -11 -104
-15 -111 -8 -271 2 -250 15 17 11 361 11 354 0z m87 -20 c25 -43 22 -211 -4
-211 -4 0 -10 44 -11 97 -2 60 -7 98 -14 100 -6 2 -44 -37 -84 -87 -66 -82
-105 -119 -116 -107 -5 5 195 237 205 237 4 0 14 -13 24 -29z m2950 -9 c-24
-32 -86 -42 -118 -18 -18 14 -17 14 17 7 39 -9 95 10 105 36 3 8 8 11 11 8 3
-3 -3 -18 -15 -33z m-3528 18 c-40 -10 -263 -10 -295 0 -14 5 49 8 150 8 100
0 162 -4 145 -8z m-415 -10 c-8 -5 -78 -10 -155 -10 -94 0 -135 3 -125 10 8 5
78 10 155 10 94 0 135 -3 125 -10z m78 -2 c15 -15 17 -198 2 -198 -6 0 -10 35
-10 86 0 64 -3 85 -12 82 -12 -4 -38 -35 -119 -139 -15 -19 -30 -31 -33 -28
-6 6 143 208 155 209 3 0 10 -5 17 -12z m-394 -20 c3 -13 5 -57 4 -98 -1 -63
-2 -66 -5 -20 -4 69 -11 100 -22 100 -5 0 -29 -28 -54 -63 -25 -35 -53 -70
-63 -78 -10 -7 -4 6 15 31 18 25 49 69 69 97 20 29 40 53 43 53 4 0 9 -10 13
-22z m1438 -50 c77 -82 96 -108 76 -108 -13 0 -141 131 -159 163 -23 41 19 13
83 -55z m-370 22 c-5 -50 -19 -70 -47 -70 -14 0 -25 4 -25 8 0 5 -16 27 -35
49 -19 23 -35 44 -35 48 0 3 33 5 73 3 l72 -3 -3 -35z m-589 -12 c64 -81 89
-118 80 -118 -8 0 -67 69 -121 142 -28 38 8 16 41 -24z m251 30 c-4 -7 -25
-34 -47 -60 -53 -65 -88 -66 -137 -5 -71 86 -78 77 64 77 99 0 126 -3 120 -12z
m244 -81 c41 -52 51 -72 34 -65 -13 5 -132 141 -132 151 0 17 58 -34 98 -86z
m-1161 19 c-2 -62 -3 -64 -21 -48 -10 9 -32 35 -48 57 l-30 40 34 6 c69 13 66
15 65 -55z m292 -13 c45 -65 48 -73 21 -48 -30 29 -90 107 -90 119 0 20 23 -4
69 -71z m-554 37 c-18 -34 -73 -100 -85 -100 -9 0 -80 106 -80 120 0 6 36 10
90 10 l91 0 -16 -30z m197 -58 c16 -24 28 -46 25 -48 -3 -3 -24 23 -48 58 -23
35 -35 57 -25 49 10 -8 31 -35 48 -59z m-172 38 c-6 -11 -13 -20 -16 -20 -2 0
0 9 6 20 6 11 13 20 16 20 2 0 0 -9 -6 -20z m1220 -10 c0 -25 -4 -30 -25 -30
-31 0 -31 7 -3 37 27 29 28 29 28 -7z m104 8 c22 -31 20 -38 -9 -38 -21 0 -25
5 -25 30 0 36 13 38 34 8z m-543 -41 c-18 -18 -25 1 -11 30 l14 28 4 -24 c2
-13 -1 -28 -7 -34z m101 36 c31 -36 30 -43 -1 -43 -28 0 -31 3 -31 30 0 34 10
38 32 13z m-1086 -42 c29 -44 25 -61 -12 -61 -22 0 -24 4 -24 50 0 28 2 50 5
50 3 0 16 -18 31 -39z m24 18 c0 -6 -4 -7 -10 -4 -5 3 -10 11 -10 16 0 6 5 7
10 4 6 -3 10 -11 10 -16z m207 -46 c-3 -2 -15 -3 -26 -1 -20 3 -20 3 2 38 l22
35 3 -33 c2 -19 1 -36 -1 -39z m-327 7 c0 -49 -1 -50 -30 -50 -16 0 -30 5 -30
10 0 11 50 90 56 90 2 0 4 -22 4 -50z m428 20 l23 -30 -26 0 c-21 0 -25 5 -25
30 0 17 1 30 3 30 2 0 13 -13 25 -30z m2422 -1 c0 -30 -1 -31 -22 -17 -34 22
-35 48 -4 48 22 0 26 -4 26 -31z m-520 3 c0 -5 -9 -17 -20 -27 -20 -18 -21
-18 -35 1 -22 29 -18 34 20 34 19 0 35 -4 35 -8z m-333 -38 c-3 -20 -8 -38 -9
-40 -2 -1 -31 0 -65 3 l-62 6 26 33 c22 30 31 34 70 34 l46 0 -6 -36z m188 6
c16 -16 27 -32 24 -34 -2 -2 -33 -5 -69 -7 l-65 -4 -3 38 -3 37 44 0 c35 0 49
-6 72 -30z m-1945 -10 c-6 -12 -14 -19 -17 -17 -2 3 1 15 7 27 6 12 14 19 17
17 2 -3 -1 -15 -7 -27z m1453 0 l18 -30 -60 0 -61 0 0 30 c0 29 2 30 43 30 37
0 45 -4 60 -30z m117 21 c0 -11 -26 -22 -34 -14 -12 12 -5 23 14 23 11 0 20
-4 20 -9z m-572 -17 c43 -30 18 -43 -57 -28 -37 8 -40 21 -8 34 32 13 40 12
65 -6z m282 -8 c0 -19 -6 -24 -37 -29 -21 -4 -48 -4 -60 -1 -22 6 -22 7 -5 30
13 18 27 23 60 24 38 0 42 -2 42 -24z m-441 5 c24 -15 1 -31 -45 -31 -24 0
-44 4 -44 8 0 27 58 42 89 23z m-395 -22 c-7 -12 -74 -12 -74 0 0 5 8 11 18
13 26 6 63 -3 56 -13z m161 12 c3 -5 -4 -13 -16 -16 -26 -9 -72 2 -64 15 8 13
72 13 80 1z m-538 -7 c-3 -3 -12 -4 -19 -1 -8 3 -5 6 6 6 11 1 17 -2 13 -5z
m916 -35 c36 -1 38 -2 17 -9 -36 -11 -340 -12 -340 -1 0 14 39 17 168 14 62
-2 131 -3 155 -4z m-773 -9 c-36 -12 -222 -12 -240 0 -10 6 31 9 125 9 85 -1
130 -4 115 -9z m323 3 c-46 -2 -120 -2 -165 0 -46 1 -9 3 82 3 91 0 128 -2 83
-3z m875 1 c34 -4 59 -11 56 -15 -7 -12 -371 -11 -379 0 -10 16 212 26 323 15z
m562 -13 c0 -7 -412 -4 -435 4 -5 2 90 4 213 4 122 1 222 -3 222 -8z m-2210
-20 c0 -5 -9 -19 -20 -32 -20 -24 -20 -24 -35 -5 -19 26 -19 34 3 39 30 8 52
7 52 -2z m110 -23 l0 -32 -22 22 c-20 19 -21 24 -8 32 25 16 30 12 30 -22z
m-186 -23 c15 -25 32 -45 39 -45 7 1 21 15 32 33 28 44 54 41 81 -7 l22 -39
26 28 c37 40 46 22 15 -33 -21 -38 -34 -50 -68 -61 -56 -18 -73 -51 -44 -89
11 -15 33 -31 49 -35 33 -10 74 -71 74 -109 -1 -22 -1 -22 -22 5 l-21 29 -37
-43 -37 -43 -29 41 c-16 23 -35 42 -41 43 -7 0 -24 -18 -38 -40 -14 -22 -32
-40 -40 -40 -23 0 -19 11 31 81 l45 64 -3 81 c-3 75 -6 85 -43 140 -60 88 -58
84 -36 84 12 0 28 -16 45 -45z m325 -6 l40 -50 33 50 c18 28 35 51 38 51 3 -1
15 -15 28 -33 57 -80 49 -76 82 -37 30 34 30 34 30 9 0 -40 -54 -113 -94 -127
-25 -9 -38 -21 -42 -39 -9 -33 4 -54 44 -74 39 -20 92 -94 92 -129 -1 -24 -1
-24 -31 10 -28 33 -31 34 -42 16 -20 -32 -65 -81 -70 -76 -2 3 -19 27 -37 54
l-34 50 -20 -29 c-44 -59 -62 -77 -79 -74 -14 3 -7 18 38 77 l55 73 0 90 0 90
-50 65 c-27 36 -50 69 -50 75 0 24 32 4 69 -42z m79 39 c-8 -22 -37 -34 -55
-22 -33 21 -26 34 17 34 28 0 40 -4 38 -12z m156 0 c-4 -7 -14 -21 -22 -31
-15 -16 -17 -16 -39 5 -33 31 -29 38 23 38 33 0 43 -3 38 -12z m116 -43 c22
-30 42 -55 44 -55 3 0 21 23 41 50 20 28 40 50 43 50 6 -1 26 -26 66 -84 13
-19 15 -19 45 14 l31 34 0 -31 c0 -18 -10 -43 -24 -60 -12 -15 -25 -34 -28
-42 -2 -8 -21 -16 -43 -18 -71 -6 -99 -72 -49 -112 15 -12 39 -21 53 -21 37 0
93 -78 89 -124 l-3 -31 -19 32 c-28 45 -42 47 -66 8 -21 -35 -51 -52 -70 -40
-6 4 -22 25 -37 48 l-26 41 -36 -43 c-26 -31 -43 -42 -59 -39 -20 3 -17 9 33
75 52 68 55 75 55 130 0 85 -15 125 -70 195 -55 68 -59 78 -30 78 12 0 35 -21
60 -55z m70 25 c-29 -41 -36 -43 -54 -15 -25 38 -20 45 30 45 l45 0 -21 -30z
m190 21 c0 -4 -10 -20 -21 -35 l-22 -27 -28 27 c-16 15 -29 31 -29 36 0 4 23
8 50 8 28 0 50 -4 50 -9z m122 -52 l46 -61 41 55 c22 31 44 58 49 61 4 2 25
-22 46 -54 43 -65 56 -67 91 -13 l18 28 9 -27 c8 -22 3 -34 -26 -73 -20 -26
-36 -50 -36 -54 0 -5 -21 -11 -46 -15 -59 -8 -74 -20 -74 -61 0 -41 27 -65 79
-72 23 -3 41 -9 41 -13 0 -3 16 -25 35 -47 25 -30 35 -51 35 -75 l-1 -33 -34
38 c-20 20 -38 37 -42 37 -3 0 -21 -18 -40 -40 -19 -22 -41 -40 -48 -40 -7 0
-32 21 -55 48 l-41 47 -44 -49 c-39 -43 -47 -48 -67 -39 -22 9 -21 10 23 59
76 82 79 90 79 181 0 45 -4 93 -10 107 -5 14 -34 52 -65 86 -60 66 -66 80 -32
80 15 0 36 -18 69 -61z m98 54 c0 -5 -11 -21 -25 -38 l-25 -30 -25 28 c-14 15
-25 32 -25 38 0 5 23 9 50 9 28 0 50 -3 50 -7z m186 -4 c3 -6 -6 -24 -22 -40
l-28 -29 -28 31 c-15 16 -28 34 -28 40 0 13 97 11 106 -2z m141 -56 l52 -58
17 24 c9 13 31 39 47 58 l30 34 25 -23 c13 -13 36 -41 50 -63 l25 -39 36 42
c20 23 40 42 44 42 4 0 7 -14 7 -31 0 -22 -11 -43 -35 -70 -19 -22 -35 -48
-35 -59 0 -17 -7 -20 -48 -20 -39 0 -53 -5 -72 -25 -45 -47 -1 -114 75 -115
25 0 38 -9 68 -49 34 -45 61 -121 42 -121 -4 0 -24 19 -44 42 l-38 42 -39 -43
c-21 -24 -43 -50 -47 -58 -7 -12 -15 -8 -39 19 -16 18 -36 45 -44 61 -8 15
-18 27 -23 27 -5 0 -31 -24 -58 -53 -32 -36 -59 -56 -81 -60 -20 -4 -32 -3
-32 4 0 6 31 43 69 83 37 39 73 81 80 93 6 12 11 61 11 110 l0 88 -70 77 c-39
42 -70 81 -70 87 0 6 10 11 22 11 15 0 41 -20 75 -57z m80 20 l-38 -38 -25 28
c-13 15 -24 32 -24 38 0 5 28 9 62 9 l63 0 -38 -37z m224 20 c-5 -10 -20 -28
-33 -40 l-23 -22 -33 40 -33 39 66 0 c59 0 65 -2 56 -17z m140 -25 c22 -24 39
-46 39 -50 0 -4 10 -12 21 -19 18 -9 24 -8 32 7 6 10 28 37 50 61 l39 43 34
-38 c19 -20 44 -50 57 -66 l23 -29 38 47 c21 25 42 46 47 46 5 0 9 -16 9 -35
0 -27 -9 -45 -40 -79 -22 -24 -40 -52 -40 -63 0 -17 -9 -21 -62 -26 -68 -6
-88 -21 -88 -67 0 -38 30 -61 89 -69 46 -6 53 -10 95 -65 36 -45 46 -67 46
-95 l-1 -36 -47 53 -47 52 -48 -55 c-27 -30 -54 -55 -60 -55 -15 1 -67 54 -92
95 l-18 29 -57 -62 c-46 -51 -61 -62 -88 -62 -18 0 -32 4 -32 10 0 5 36 45 80
88 l80 78 0 71 c0 39 3 84 6 100 5 25 -3 40 -55 106 -34 42 -71 79 -81 82 -31
10 -26 45 6 45 18 0 38 -13 65 -42z m107 -4 c-39 -39 -46 -39 -78 6 l-21 30
68 0 68 0 -37 -36z m252 28 c0 -4 -15 -22 -32 -40 l-33 -31 -33 40 -33 39 65
0 c36 0 66 -4 66 -8z m-2295 -94 c27 -39 5 -238 -27 -238 -4 0 -8 59 -8 130 0
75 4 130 9 130 6 0 17 -10 26 -22z m2975 -22 c30 -8 106 -38 169 -66 130 -59
164 -63 251 -30 86 32 90 28 90 -81 l0 -91 29 5 c26 5 29 3 35 -25 8 -39 8
-222 0 -269 -5 -32 -10 -36 -48 -45 l-41 -9 -80 -162 c-44 -90 -92 -174 -106
-189 -20 -20 -44 -28 -110 -39 -158 -25 -466 -58 -484 -51 -30 11 -8 91 86
304 84 190 102 246 97 313 -4 60 -18 83 -80 138 l-37 32 -29 -21 c-60 -45
-117 1 -116 93 1 56 13 87 47 125 24 25 69 29 87 7 18 -22 33 -19 66 16 29 32
76 58 104 59 9 0 40 -6 70 -14z m-2634 -14 c1 -7 0 -8 -3 -2 -2 5 -9 8 -14 4
-5 -3 -9 0 -9 6 0 15 23 7 26 -8z m624 -6 c0 -8 -4 -17 -9 -21 -12 -7 -24 12
-16 25 9 15 25 12 25 -4z m116 -34 c-12 -11 -36 9 -36 30 l1 23 20 -24 c11
-13 17 -26 15 -29z m294 18 c0 -21 -20 -35 -40 -28 -12 4 16 48 31 48 5 0 9
-9 9 -20z m130 -27 c0 -7 -9 -13 -20 -13 -16 0 -20 7 -20 32 0 30 0 31 20 13
11 -10 20 -24 20 -32z m310 -18 c-6 -8 -18 -11 -25 -9 -16 6 -10 30 14 58 15
18 16 17 19 -8 2 -15 -2 -33 -8 -41z m150 3 c0 -11 -8 -18 -20 -18 -17 0 -20
7 -20 43 l0 42 20 -25 c11 -14 20 -33 20 -42z m360 30 c0 -43 -12 -68 -31 -68
-24 0 -26 46 -2 72 22 24 33 23 33 -4z m160 -48 c0 -15 -7 -20 -25 -20 -23 0
-25 4 -25 45 l0 44 25 -25 c14 -14 25 -34 25 -44z m-2240 4 l0 -47 -46 6 c-57
6 -79 26 -70 61 6 24 11 26 61 26 l55 0 0 -46z m98 -1 c3 -42 2 -43 -27 -43
-29 0 -31 2 -31 38 0 45 6 54 35 50 16 -2 21 -12 23 -45z m226 31 c11 -4 16
-19 16 -45 l0 -39 -45 0 c-37 0 -47 4 -61 25 -16 24 -16 27 1 45 18 20 58 26
89 14z m126 -49 c0 -43 -1 -45 -30 -45 -29 0 -30 2 -30 45 0 43 1 45 30 45 29
0 30 -2 30 -45z m268 -12 l3 -43 -56 0 c-83 0 -118 27 -94 71 9 17 19 19 77
17 l67 -3 3 -42z m115 -1 c6 -46 0 -51 -41 -45 -24 4 -32 10 -28 20 3 8 6 27
6 42 0 25 3 27 29 23 25 -3 30 -9 34 -40z m295 -19 l3 -43 -51 0 c-63 0 -120
22 -120 47 0 35 21 44 95 41 l70 -3 3 -42z m115 37 c13 0 17 -9 17 -38 0 -21
-2 -41 -5 -43 -2 -3 -20 -3 -40 -1 -34 4 -35 5 -35 49 0 42 2 45 23 39 12 -3
30 -6 40 -6z m315 -10 c19 0 22 -5 22 -45 l0 -45 -62 0 c-77 0 -112 16 -116
52 -3 23 2 29 30 37 18 6 49 8 68 6 19 -3 45 -5 58 -5z m131 -6 c29 -6 31 -9
31 -51 0 -42 -2 -45 -22 -39 -13 3 -33 6 -45 6 -20 0 -23 5 -23 38 0 54 4 57
59 46z m391 -60 l0 -44 -80 0 c-72 0 -83 3 -105 24 -29 29 -24 54 14 62 14 3
29 6 33 7 4 1 37 0 73 -1 l65 -4 0 -44z m158 -11 l3 -43 -50 0 -51 0 0 46 0
45 48 -3 47 -3 3 -42z m-2238 16 c0 -5 -4 -9 -10 -9 -5 0 -10 7 -10 16 0 8 5
12 10 9 6 -3 10 -10 10 -16z m1255 -49 c4 -6 -1 -7 -11 -3 -13 5 -16 3 -11
-10 3 -9 2 -17 -3 -17 -6 0 -10 6 -10 13 0 25 23 36 35 17z m438 -27 c-6 -16
-5 -17 13 -3 18 14 18 14 5 -2 -7 -10 -17 -15 -22 -12 -12 7 -11 34 1 34 5 0
6 -8 3 -17z m-1873 -32 c14 -27 13 -31 -9 -31 -24 0 -33 13 -25 34 8 21 21 20
34 -3z m140 5 c0 -2 3 -11 6 -20 5 -13 -1 -16 -25 -16 -29 0 -30 2 -19 20 11
17 38 28 38 16z m2424 -31 c25 -19 49 -19 88 1 30 16 31 16 74 -27 63 -62 71
-93 44 -180 -11 -39 -51 -139 -87 -222 -37 -84 -77 -188 -88 -232 l-22 -80
-99 -22 c-115 -25 -269 -40 -277 -26 -3 5 6 8 21 5 26 -3 30 3 80 111 28 63
52 119 52 125 0 6 15 21 33 33 68 48 136 113 148 141 9 21 10 79 6 209 -3 98
-3 179 1 179 4 0 16 -7 26 -15z m-2424 -35 c18 -12 -83 -12 -175 0 -54 6 -49
7 50 8 61 1 117 -3 125 -8z m323 -20 c15 0 27 -4 27 -9 0 -10 -228 -1 -255 10
-12 6 23 7 90 4 61 -2 122 -5 138 -5z m-447 -22 c-3 -13 -6 -34 -6 -48 l-1
-25 -19 24 c-11 13 -20 34 -20 47 0 19 5 24 26 24 22 0 25 -3 20 -22z m848 2
c11 -11 -247 -1 -289 11 -19 6 27 7 125 4 85 -3 159 -10 164 -15z m-704 2 c0
-11 -55 -88 -69 -97 -7 -4 -11 13 -11 49 l0 56 40 0 c22 0 40 -4 40 -8z m1095
-29 l30 -6 -29 -8 c-15 -4 -65 -4 -110 1 -44 6 -111 10 -148 10 -38 0 -70 5
-74 11 -5 8 35 10 147 5 85 -4 168 -10 184 -13z m-1083 -25 c-7 -7 -12 -8 -12
-2 0 6 3 14 7 17 3 4 9 5 12 2 2 -3 -1 -11 -7 -17z m237 -129 c10 6 37 35 60
66 24 31 45 54 48 51 8 -7 -72 -110 -110 -142 -30 -25 -31 -25 -44 -8 -12 16
-11 20 2 30 11 8 16 32 17 85 l2 74 3 -83 c4 -76 5 -81 22 -73z m355 -39 c7 0
36 29 64 65 29 36 57 65 63 65 26 0 -93 -134 -133 -151 -29 -12 -32 -11 -52
14 -12 15 -30 41 -40 59 -15 29 -12 27 22 -12 l40 -45 7 28 c4 15 5 44 2 63
-3 18 -3 51 1 72 5 27 8 11 10 -60 2 -72 6 -98 16 -98z m-489 94 c19 -29 35
-55 35 -58 0 -3 -38 -6 -84 -6 l-85 0 31 75 c30 73 31 75 50 59 10 -10 34 -41
53 -70z m366 11 c6 -11 -6 -2 -25 20 -20 22 -36 45 -35 50 0 12 46 -41 60 -70z
m421 -73 c27 -34 52 -62 58 -62 6 0 10 37 10 90 0 53 4 90 10 90 6 0 10 -38
10 -95 0 -130 -3 -131 136 44 1 1 8 1 15 -1 18 -6 -116 -154 -150 -166 -29
-10 -30 -9 -108 96 -43 58 -82 113 -86 121 -13 25 53 -49 105 -117z m648 109
c19 -9 -20 -10 -154 -5 -98 3 -188 10 -200 15 -14 6 40 8 154 5 96 -2 186 -9
200 -15z m-1568 -13 c-7 -7 -12 -8 -12 -2 0 14 12 26 19 19 2 -3 -1 -11 -7
-17z m1878 2 c168 -12 219 -19 199 -30 -15 -9 -340 5 -404 16 l-40 8 30 7 c43
10 55 10 215 -1z m-544 -121 c36 -49 70 -89 75 -89 5 0 9 43 9 95 0 78 3 95
15 95 12 0 15 -17 15 -95 0 -52 4 -95 8 -95 4 0 39 34 77 75 38 41 73 75 77
75 23 0 -1 -34 -82 -118 -78 -81 -93 -92 -107 -81 -16 14 -135 172 -169 224
-38 60 14 6 82 -86z m-1364 79 c-7 -7 -12 -8 -12 -2 0 14 12 26 19 19 2 -3 -1
-11 -7 -17z m2367 16 c50 -10 25 -24 -44 -24 -70 0 -98 16 -38 23 21 2 41 4
44 5 4 1 20 -1 38 -4z m-2481 -54 c12 -21 22 -47 22 -57 0 -10 8 -29 17 -42 9
-14 11 -21 4 -17 -9 6 -12 1 -10 -15 2 -13 -5 -54 -15 -91 l-19 -66 -114 -22
c-116 -22 -245 -31 -258 -18 -7 7 98 241 117 263 6 6 16 1 28 -15 18 -23 21
-24 44 -10 49 30 137 102 143 116 8 22 16 17 41 -26z m1932 -62 c45 -57 85
-104 89 -106 10 -3 21 73 21 144 0 41 4 54 15 54 12 0 15 -18 15 -100 0 -77 3
-100 13 -100 8 0 46 34 86 75 71 73 91 87 91 64 0 -21 -185 -199 -206 -199
-15 0 -51 38 -122 129 -56 72 -102 132 -102 135 0 22 30 -7 100 -96z m-1840
70 c0 -10 -42 -27 -52 -21 -20 11 -6 32 22 31 17 -1 30 -5 30 -10z m197 -54
c-3 -3 -12 -4 -19 -1 -8 3 -5 6 6 6 11 1 17 -2 13 -5z m420 -38 c3 -3 2 -10
-2 -17 -6 -9 -39 -10 -129 -6 -137 7 -186 15 -186 30 0 10 307 4 317 -7z m363
-28 c10 -6 -35 -8 -132 -4 -82 2 -155 10 -165 16 -14 8 20 9 132 5 83 -4 157
-11 165 -17z m428 -49 c23 -14 -294 -4 -328 11 -19 8 17 9 143 5 93 -3 176
-10 185 -16z m493 -69 c30 -13 -340 -2 -379 11 -17 6 46 7 164 4 105 -2 202
-9 215 -15z m256 -32 l28 -12 -40 -4 c-56 -5 -185 8 -185 19 0 13 164 11 197
-3z"/>
<path d="M6886 6874 c-34 -9 -57 -22 -74 -44 l-24 -31 -22 20 c-19 18 -26 19
-66 9 -25 -6 -49 -14 -53 -18 -9 -8 -41 -229 -34 -236 1 -2 26 4 54 13 l51 16
7 59 c7 60 12 67 33 46 9 -9 17 -6 37 12 l25 23 0 -52 c0 -41 3 -52 14 -48 8
3 32 11 54 17 l39 12 7 105 c4 58 6 106 4 107 -2 2 -25 -3 -52 -10z"/>
<path d="M6432 6762 l-63 -17 -55 -120 c-31 -66 -62 -134 -69 -151 l-13 -32
51 17 c37 12 56 24 69 47 11 19 29 34 46 37 15 3 35 9 45 12 13 6 17 2 17 -15
0 -15 5 -20 14 -17 8 3 32 11 55 18 23 7 41 17 41 23 0 6 -10 57 -22 113 -25
115 -18 110 -116 85z m8 -128 c0 -14 -7 -27 -15 -31 -23 -8 -26 0 -14 35 12
36 29 34 29 -4z"/>
<path d="M6145 6688 c-44 -12 -82 -22 -84 -24 -5 -5 -62 -287 -58 -291 2 -1
48 12 103 30 84 29 100 38 108 60 13 36 6 40 -44 22 -24 -8 -44 -14 -46 -12
-2 2 -1 13 2 25 4 15 17 23 39 28 27 5 34 12 39 37 8 38 5 40 -29 27 -33 -12
-36 -11 -29 16 4 15 20 24 55 33 28 7 49 19 49 26 0 7 3 20 6 29 8 21 -9 20
-111 -6z"/>
<path d="M5897 6625 c-49 -13 -91 -25 -93 -28 -3 -3 -11 -31 -19 -62 l-13 -57
29 6 c26 5 29 3 24 -17 -26 -115 -35 -160 -32 -163 1 -2 26 4 54 13 l51 16 18
91 c18 85 21 92 50 105 27 11 32 21 41 67 11 64 17 62 -110 29z"/>
<path d="M4171 6739 c-95 -57 -161 -215 -161 -380 1 -196 77 -393 182 -469 82
-60 160 -24 224 102 44 86 67 202 61 299 -9 120 -12 125 -49 94 -38 -32 -108
-34 -156 -5 -48 29 -78 101 -63 150 18 60 51 84 116 82 30 -1 55 3 55 7 0 16
-92 111 -121 126 -37 20 -48 19 -88 -6z m244 -460 c10 -15 -1 -23 -20 -15 -9
3 -13 10 -10 16 8 13 22 13 30 -1z"/>
<path d="M3735 6506 c-63 -27 -124 -132 -145 -246 -39 -214 85 -516 211 -512
96 3 179 166 179 352 0 100 -9 123 -38 97 -86 -78 -235 43 -180 146 18 35 40
46 91 47 26 0 47 4 47 8 0 16 -72 93 -101 107 -33 18 -26 17 -64 1z m195 -406
c0 -5 -7 -10 -15 -10 -8 0 -15 5 -15 10 0 6 7 10 15 10 8 0 15 -4 15 -10z"/>
<path d="M7194 4655 c-31 -81 1 -183 70 -220 l37 -20 25 28 c47 55 27 177 -38
232 -46 39 -73 33 -94 -20z m102 -29 c41 -72 39 -168 -2 -174 -51 -7 -104 133
-78 203 12 30 56 14 80 -29z"/>
<path d="M5007 4251 c-4 -19 -7 -91 -7 -162 l0 -128 29 -22 c16 -12 37 -37 47
-55 10 -19 23 -34 28 -34 14 0 156 152 156 167 0 6 -56 69 -123 139 l-124 128
-6 -33z m147 -147 c48 -56 41 -64 -56 -64 -58 0 -68 3 -68 18 0 9 -3 34 -6 55
l-7 37 49 0 c46 -1 52 -4 88 -46z m44 -81 c18 -4 20 -8 10 -14 -16 -10 -139
-12 -164 -2 -16 6 -16 7 2 14 24 9 121 11 152 2z m-44 -88 c-20 -25 -37 -45
-38 -45 -1 0 -22 20 -46 45 l-44 45 83 0 82 0 -37 -45z"/>
<path d="M4833 4149 c-59 -66 -109 -124 -111 -128 -3 -10 108 -141 131 -155
16 -9 22 -7 35 14 9 14 31 39 49 56 l33 30 0 152 c0 125 -3 152 -14 152 -8 0
-63 -54 -123 -121z m107 -48 l0 -49 -71 -4 c-39 -2 -72 -1 -74 1 -8 8 26 60
51 80 15 12 41 21 60 21 34 0 34 0 34 -49z m-30 -77 c50 -10 15 -24 -62 -24
-96 0 -103 26 -7 29 20 0 51 -2 69 -5z m-7 -86 l-43 -42 -35 34 c-19 19 -35
38 -35 42 0 4 35 8 77 8 l78 0 -42 -42z"/>
<path d="M4986 3718 c-9 -12 -16 -29 -16 -38 0 -22 28 -60 45 -60 24 0 45 30
45 64 0 56 -45 76 -74 34z"/>
<path d="M5517 3063 c-3 -5 -8 -29 -11 -55 -7 -47 -7 -48 16 -39 12 4 25 17
28 27 3 10 15 20 26 21 17 2 21 -2 17 -17 -4 -15 0 -20 16 -20 23 0 26 5 35
58 5 28 3 32 -17 32 -13 0 -28 -5 -35 -12 -9 -9 -15 -9 -24 0 -13 13 -44 16
-51 5z"/>
<path d="M5279 3053 c-22 -3 -27 -11 -38 -65 -7 -33 -11 -62 -9 -63 2 -2 22
-1 46 2 43 6 61 33 22 33 -11 0 -20 5 -20 10 0 6 9 10 20 10 11 0 20 7 20 15
0 8 -7 15 -15 15 -8 0 -15 5 -15 10 0 6 11 10 25 10 16 0 25 6 25 15 0 15 -9
16 -61 8z"/>
<path d="M5367 3005 c-15 -31 -27 -58 -27 -60 0 -12 39 -3 44 10 6 17 42 21
48 5 2 -5 13 -7 25 -4 18 5 22 12 18 30 -3 13 -7 35 -10 49 -4 21 -11 25 -38
25 -30 0 -35 -5 -60 -55z m63 -6 c0 -5 -7 -9 -15 -9 -9 0 -12 6 -9 15 6 15 24
11 24 -6z"/>
<path d="M5136 3023 c-4 -15 -3 -29 4 -33 7 -5 9 -20 5 -44 -6 -32 -5 -36 13
-36 15 0 22 10 31 44 6 24 18 46 26 50 8 3 15 15 15 26 0 17 -6 20 -44 20 -39
0 -45 -3 -50 -27z"/>
<path d="M887 7163 c-2 -10 -23 -68 -45 -130 l-40 -111 266 -183 266 -183 230
-18 c126 -9 231 -16 233 -15 3 4 -881 650 -895 655 -5 1 -12 -5 -15 -15z"/>
<path d="M8770 6956 c-221 -77 -317 -128 -366 -192 -27 -35 -29 -43 -29 -133
1 -78 6 -111 28 -176 32 -93 139 -319 156 -329 6 -4 44 5 84 21 l74 28 -42 95
c-98 220 -113 293 -72 334 14 13 132 66 284 127 l262 103 -17 29 c-79 134
-175 159 -362 93z"/>
<path d="M9113 6683 c-61 -25 -61 -26 -51 -55 18 -50 -9 -90 -84 -126 -35 -16
-66 -28 -69 -26 -4 2 -15 26 -25 54 -19 54 -21 54 -85 26 l-26 -11 66 -167 66
-166 100 42 c144 61 178 80 213 120 51 58 53 117 10 264 -24 82 -24 82 -115
45z"/>
<path d="M597 6349 c-26 -73 -46 -134 -44 -136 4 -3 450 -30 897 -53 113 -6
217 -12 232 -14 26 -2 29 2 71 118 24 67 43 122 42 123 0 1 -232 20 -515 42
-283 22 -542 43 -576 46 l-61 6 -46 -132z"/>
<path d="M7213 2761 l-212 -56 -112 -319 c-62 -176 -112 -325 -112 -331 0 -7
29 -124 64 -259 l64 -248 220 -201 c121 -111 238 -219 261 -239 l40 -37 216
57 c119 32 219 60 223 63 3 4 -162 156 -367 339 -205 183 -384 343 -397 355
l-23 23 177 451 c97 249 176 454 174 455 -2 2 -99 -22 -216 -53z"/>
<path d="M2952 2768 c-170 -19 -283 -157 -352 -432 -59 -235 -30 -348 118
-453 35 -25 145 -83 245 -128 237 -106 264 -121 278 -147 20 -37 3 -125 -74
-373 -41 -132 -74 -241 -73 -242 1 -2 38 -8 81 -14 232 -32 374 81 469 372 62
190 72 349 28 435 -41 80 -99 116 -432 266 -194 87 -220 107 -220 170 0 23 34
150 76 286 41 134 73 247 70 250 -11 10 -151 17 -214 10z"/>
<path d="M3365 2697 c-47 -143 -83 -273 -77 -278 4 -3 61 -23 127 -43 66 -21
182 -62 258 -93 76 -30 142 -51 147 -47 8 9 80 234 80 251 0 32 -526 238 -535
210z"/>
<path d="M6214 2498 l-191 -50 18 -72 c84 -326 409 -1549 413 -1554 6 -5 394
93 403 101 2 3 -92 370 -209 816 -164 625 -216 811 -228 810 -8 0 -101 -23
-206 -51z"/>
<path d="M4316 2296 c-3 -77 -13 -424 -21 -771 -8 -346 -16 -662 -18 -701 l-2
-72 208 -7 c114 -4 210 -6 212 -4 5 6 49 1679 44 1683 -2 2 -97 6 -211 9
l-206 5 -6 -142z"/>
<path d="M4940 2271 c0 -137 2 -151 18 -151 79 -2 168 -22 200 -46 64 -50 76
-94 80 -306 5 -237 -12 -538 -33 -598 -20 -56 -69 -107 -115 -120 -19 -5 -67
-10 -106 -10 l-71 0 -6 -107 c-4 -58 -7 -129 -7 -156 l0 -50 152 7 c261 12
396 46 474 118 83 77 115 180 134 433 15 199 15 680 0 770 -41 249 -183 333
-612 361 l-108 7 0 -152z"/>
<path d="M2363 1408 c-37 -119 -40 -134 -26 -145 42 -33 546 -224 558 -211 2
2 24 67 48 144 l43 140 -135 43 c-75 24 -205 69 -289 102 -84 32 -154 59 -156
59 -1 0 -21 -60 -43 -132z"/>
</g>
</svg>
